# xmcd
#
# Track frame offsets: 
#        150
#        14227
#        25210
#        41945
#        57222
#        71005
#        80742
#        92575
#        101655
#        112845
#        124195
#        135275
#        146877
#        162357
#        180997
#        191380
#        203270
#        212857
#
# Disc length: 3006 seconds
#
# Revision: 0
# Processed by: cddbd v1.5.2PL0 Copyright (c) Steve Scherf et al.
# Submitted via: ExactAudioCopy v0.99pb5
#
DISCID=fc0bbc12
DTITLE=Frankie Laine - Country And Western
DYEAR=1998
DGENRE=Country
TTITLE0=Don't Fence Me In
TTITLE1=Humming Bird
TTITLE2=I Believe In You
TTITLE3=Green Green Grass Of Home
TTITLE4=Riders In The Sky
TTITLE5=Gunfight At The OK Corral
TTITLE6=Wanted Man
TTITLE7=Your Cheatin' Heart
TTITLE8=North To Alaska
TTITLE9=Along The Navajo Trail
TTITLE10=Call Of The Wild
TTITLE11=Let Me Love You One More Time
TTITLE12=Tumbling Tumbleweeds
TTITLE13=Old Dogs, Children And Watermelon Wine
TTITLE14=The Hanging Tree
TTITLE15=Jambalaya
TTITLE16=Blazing Saddles
TTITLE17=That Lucky Old Sun
EXTD=
EXTT0=
EXTT1=
EXTT2=
EXTT3=
EXTT4=
EXTT5=
EXTT6=
EXTT7=
EXTT8=
EXTT9=
EXTT10=
EXTT11=
EXTT12=
EXTT13=
EXTT14=
EXTT15=
EXTT16=
EXTT17=
PLAYORDER=
